<?xml version="1.0" encoding="UTF-8"?>
<svg xmlns="http://www.w3.org/2000/svg" viewBox="0 0 64 64" role="img" aria-label="VialVibes">
  <defs>
    <linearGradient id="mWave" x1="0%" y1="0%" x2="100%" y2="100%">
      <stop offset="0%" stop-color="#00E5FF"/>
      <stop offset="50%" stop-color="#A855F7"/>
      <stop offset="100%" stop-color="#00FFAA"/>
    </linearGradient>
    <linearGradient id="mFill" x1="0%" y1="0%" x2="0%" y2="100%">
      <stop offset="0%" stop-color="#22D3EE" stop-opacity="0.85"/>
      <stop offset="100%" stop-color="#A855F7" stop-opacity="0.75"/>
    </linearGradient>
    <radialGradient id="mBg" cx="50%" cy="40%" r="60%">
      <stop offset="0%" stop-color="#1E1B4B"/>
      <stop offset="100%" stop-color="#0F0C29"/>
    </radialGradient>
  </defs>
  <rect width="64" height="64" rx="16" fill="url(#mBg)"/>
  <g transform="translate(8,6)">
    <rect x="14" y="2" width="20" height="6" rx="2" fill="#F8F9FA" opacity="0.92"/>
    <rect x="16" y="8" width="16" height="4" rx="1" fill="#94A3B8"/>
    <path d="M20 12 h8 v7 h-8 z" fill="#22D3EE" opacity="0.45"/>
    <path d="M12 19 C12 19 10 24 10 32 L10 44 C10 49 15 54 24 54 C33 54 38 49 38 44 L38 32 C38 24 36 19 36 19 Z" fill="none" stroke="url(#mWave)" stroke-width="2.4"/>
    <path d="M13 34 L13 44 C13 48 17 51 24 51 C31 51 35 48 35 44 L35 34 Z" fill="url(#mFill)" opacity="0.6"/>
    <path d="M14 38 Q19 32 24 38 T34 38" fill="none" stroke="#00FFAA" stroke-width="2" stroke-linecap="round"/>
    <path d="M14 43 Q19 40 24 43 T34 43" fill="none" stroke="#00E5FF" stroke-width="1.4" stroke-linecap="round" opacity="0.85"/>
  </g>
</svg>
